<svg width="400" height="400" viewBox="0 0 400 400" fill="none" xmlns="http://www.w3.org/2000/svg">
<path d="M200 0C89.72 0 0 89.72 0 200C0 310.28 89.72 400 200 400C310.28 400 400 310.28 400 200C400 89.72 310.28 0 200 0ZM200 82C205.142 82 210.169 83.5249 214.445 86.3818C218.721 89.2387 222.053 93.2994 224.021 98.0502C225.989 102.801 226.504 108.029 225.5 113.072C224.497 118.116 222.021 122.749 218.385 126.385C214.749 130.021 210.116 132.497 205.072 133.5C200.029 134.504 194.801 133.989 190.05 132.021C185.299 130.053 181.239 126.721 178.382 122.445C175.525 118.169 174 113.142 174 108C174 101.104 176.739 94.4912 181.615 89.6152C186.491 84.7393 193.104 82 200 82ZM248 308H160C155.757 308 151.687 306.314 148.686 303.314C145.686 300.313 144 296.243 144 292C144 287.757 145.686 283.687 148.686 280.686C151.687 277.686 155.757 276 160 276H188V188H172C167.757 188 163.687 186.314 160.686 183.314C157.686 180.313 156 176.243 156 172C156 167.757 157.686 163.687 160.686 160.686C163.687 157.686 167.757 156 172 156H204C208.243 156 212.313 157.686 215.314 160.686C218.314 163.687 220 167.757 220 172V276H248C252.243 276 256.313 277.686 259.314 280.686C262.314 283.687 264 287.757 264 292C264 296.243 262.314 300.313 259.314 303.314C256.313 306.314 252.243 308 248 308Z" fill="#511730"/>
</svg>
